<svg xmlns="http://www.w3.org/2000/svg" width="35" height="35" viewBox="0 0 35 35">
  <path id="flag-solid" d="M31.72,6.753c-3.721,0-6.795-2.378-11.473-2.378a13.689,13.689,0,0,0-4.725.821,3.77,3.77,0,0,0,.249-1.611A3.891,3.891,0,0,0,8,3.828,3.806,3.806,0,0,0,9.667,6.969V33.36A1.654,1.654,0,0,0,11.333,35h1.111a1.654,1.654,0,0,0,1.667-1.641V26.907a19.668,19.668,0,0,1,7.947-1.512c3.721,0,6.795,2.378,11.473,2.378a14.69,14.69,0,0,0,8.507-2.793,2.174,2.174,0,0,0,.961-1.8V6.559a2.22,2.22,0,0,0-3.159-1.984A20.466,20.466,0,0,1,31.72,6.753Z" transform="translate(-8 0)" fill="#f5cb5c"/>
</svg>
