<svg xmlns="http://www.w3.org/2000/svg" width="39.623" height="39.623" viewBox="0 0 39.623 39.623">
  <path id="arrow-circle-right-solid" d="M27.811,8A19.811,19.811,0,1,1,8,27.811,19.808,19.808,0,0,1,27.811,8ZM25.5,19.471l6.031,5.784H16.947a1.913,1.913,0,0,0-1.917,1.917V28.45a1.913,1.913,0,0,0,1.917,1.917H31.534L25.5,36.151a1.919,1.919,0,0,0-.032,2.74l.879.871a1.909,1.909,0,0,0,2.708,0l10.6-10.593a1.909,1.909,0,0,0,0-2.708l-10.6-10.609a1.909,1.909,0,0,0-2.708,0l-.879.871A1.929,1.929,0,0,0,25.5,19.471Z" transform="translate(-8 -8)" fill="#f5cb5c"/>
</svg>
